<svg width="19" height="19" viewBox="0 0 19 19" fill="none" xmlns="http://www.w3.org/2000/svg">
<g clip-path="url(#clip0_72_131)">
<path d="M16.1527 3.99293C15.7803 3.6204 15.3382 3.32489 14.8516 3.12327C14.365 2.92165 13.8435 2.81787 13.3168 2.81787C12.79 2.81787 12.2685 2.92165 11.7819 3.12327C11.2953 3.32489 10.8532 3.6204 10.4809 3.99293L9.70809 4.76569L8.93533 3.99293C8.1832 3.2408 7.1631 2.81826 6.09943 2.81826C5.03576 2.81826 4.01566 3.2408 3.26353 3.99293C2.51141 4.74506 2.08887 5.76516 2.08887 6.82883C2.08887 7.89249 2.51141 8.9126 3.26353 9.66472L9.70809 16.1093L16.1527 9.66472C16.5252 9.29237 16.8207 8.85027 17.0223 8.36368C17.2239 7.87708 17.3277 7.35554 17.3277 6.82883C17.3277 6.30212 17.2239 5.78057 17.0223 5.29397C16.8207 4.80738 16.5252 4.36528 16.1527 3.99293Z" stroke="#1E1E1E" stroke-width="1.45805" stroke-linecap="round" stroke-linejoin="round"/>
</g>
<defs>
<clipPath id="clip0_72_131">
<rect width="17.4965" height="17.4965" fill="white" transform="translate(0.959961 0.631836)"/>
</clipPath>
</defs>
</svg>
