<svg width="22" height="22" viewBox="0 0 22 22" fill="none" xmlns="http://www.w3.org/2000/svg">
<path d="M5.62116 15.4303C6.35078 14.8723 7.16624 14.4324 8.06754 14.1105C8.96883 13.7886 9.91305 13.6277 10.9002 13.6277C11.8873 13.6277 12.8315 13.7886 13.7328 14.1105C14.6341 14.4324 15.4496 14.8723 16.1792 15.4303C16.6799 14.8437 17.0698 14.1785 17.3487 13.4345C17.6277 12.6906 17.7672 11.8966 17.7672 11.0525C17.7672 9.14979 17.0984 7.5296 15.7607 6.19196C14.4231 4.85432 12.8029 4.18551 10.9002 4.18551C8.99745 4.18551 7.37726 4.85432 6.03962 6.19196C4.70198 7.5296 4.03316 9.14979 4.03316 11.0525C4.03316 11.8966 4.17265 12.6906 4.45162 13.4345C4.73059 14.1785 5.12044 14.8437 5.62116 15.4303ZM10.9002 11.9109C10.0561 11.9109 9.34437 11.6212 8.76497 11.0418C8.18556 10.4624 7.89586 9.75065 7.89586 8.90658C7.89586 8.06251 8.18556 7.35077 8.76497 6.77137C9.34437 6.19196 10.0561 5.90226 10.9002 5.90226C11.7443 5.90226 12.456 6.19196 13.0354 6.77137C13.6148 7.35077 13.9045 8.06251 13.9045 8.90658C13.9045 9.75065 13.6148 10.4624 13.0354 11.0418C12.456 11.6212 11.7443 11.9109 10.9002 11.9109ZM10.9002 19.6363C9.71276 19.6363 8.59687 19.411 7.55251 18.9603C6.50815 18.5097 5.5997 17.8981 4.82716 17.1255C4.05462 16.353 3.44303 15.4446 2.99238 14.4002C2.54173 13.3558 2.31641 12.2399 2.31641 11.0525C2.31641 9.8651 2.54173 8.74921 2.99238 7.70485C3.44303 6.66049 4.05462 5.75204 4.82716 4.9795C5.5997 4.20696 6.50815 3.59537 7.55251 3.14472C8.59687 2.69407 9.71276 2.46875 10.9002 2.46875C12.0876 2.46875 13.2035 2.69407 14.2479 3.14472C15.2922 3.59537 16.2007 4.20696 16.9732 4.9795C17.7457 5.75204 18.3573 6.66049 18.808 7.70485C19.2586 8.74921 19.484 9.8651 19.484 11.0525C19.484 12.2399 19.2586 13.3558 18.808 14.4002C18.3573 15.4446 17.7457 16.353 16.9732 17.1255C16.2007 17.8981 15.2922 18.5097 14.2479 18.9603C13.2035 19.411 12.0876 19.6363 10.9002 19.6363Z" fill="#FFF9FF"/>
</svg>
